Coordinates
version=1
nRows=11
nColumns=40
inDegrees=yes

Units are S.I. units (second, meters, Newtons, ...)
Angles are in degrees.

endheader
time	pelvis_tilt	pelvis_list	pelvis_rotation	pelvis_tx	pelvis_ty	pelvis_tz	hip_flexion_r	hip_adduction_r	hip_rotation_r	knee_angle_r	knee_angle_r_beta	ankle_angle_r	subtalar_angle_r	mtp_angle_r	hip_flexion_l	hip_adduction_l	hip_rotation_l	knee_angle_l	knee_angle_l_beta	ankle_angle_l	subtalar_angle_l	mtp_angle_l	lumbar_extension	lumbar_bending	lumbar_rotation	arm_flex_r	arm_add_r	arm_rot_r	elbow_flex_r	pro_sup_r	wrist_flex_r	wrist_dev_r	arm_flex_l	arm_add_l	arm_rot_l	elbow_flex_l	pro_sup_l	wrist_flex_l	wrist_dev_l
      4.06000000	    -25.23983790	      2.16570754	    -12.66063723	      0.06480544	      0.89829177	      0.21725056	     23.36928202	      3.26352610	      5.34074065	     31.36345667	     31.36345667	     10.94977313	      0.00000000	      0.00000000	     50.10334592	     -8.14273118	    -12.82283507	      8.86539971	      8.86539971	    -19.56366905	      0.00000000	      0.00000000	     31.03951114	      2.46357914	      9.74775554	     15.96127829	    -15.06043597	     26.26737248	     50.76052561	     63.38474008	      0.00000000	      0.00000000	    -28.47082954	     -9.81813098	     47.16832788	     11.42972826	     23.67428884	      0.00000000	      0.00000000
      4.07000000	    -24.97950782	      2.23845879	    -12.30066794	      0.07427769	      0.89879816	      0.21560122	     23.47781946	      2.91416337	      5.45228977	     33.06331423	     33.06331423	      9.86214305	      0.00000000	      0.00000000	     49.83685217	     -7.71472910	    -12.50956402	      9.69626702	      9.69626702	    -20.05664834	      0.00000000	      0.00000000	     30.73604010	      2.06119071	      9.55501873	     15.03202026	    -14.96053488	     26.38322792	     49.69416293	     63.26770225	      0.00000000	      0.00000000	    -27.51976139	     -9.98356801	     47.12690673	     11.54371506	     23.68712473	      0.00000000	      0.00000000
      4.08000000	    -24.78756393	      2.47942420	    -11.93858703	      0.08357979	      0.89937293	      0.21364750	     23.97049455	      2.31509992	      5.22470154	     35.19781140	     35.19781140	      8.40223705	      0.00000000	      0.00000000	     49.62214506	     -7.14720503	    -12.33686347	     10.48432198	     10.48432198	    -20.36460467	      0.00000000	      0.00000000	     30.57209877	      1.56308203	      9.28670245	     14.17385282	    -14.67004609	     26.43289724	     48.35777161	     63.08194648	      0.00000000	      0.00000000	    -26.56909454	    -10.05127787	     47.08387333	     11.63418587	     23.71077692	      0.00000000	      0.00000000
      4.09000000	    -25.04749873	      3.05415413	    -11.58909575	      0.09238012	      0.89953141	      0.21154128	     25.23869805	      1.46569804	      5.10439098	     37.61467870	     37.61467870	      6.78115781	      0.00000000	      0.00000000	     49.86796054	     -6.39094833	    -12.50933450	     11.17484378	     11.17484378	    -20.56519925	      0.00000000	      0.00000000	     31.01283945	      0.87460746	      9.12628202	     13.32597106	    -14.23963035	     26.59729674	     46.68489919	     62.64662682	      0.00000000	      0.00000000	    -25.67684090	    -10.16548381	     46.85782873	     11.69334303	     23.77406309	      0.00000000	      0.00000000
      4.10000000	    -24.92460900	      3.27836517	    -11.20592978	      0.10125061	      0.90039511	      0.20954373	     26.02860115	      0.91487271	      4.96962595	     39.94716016	     39.94716016	      4.80344913	      0.00000000	      0.00000000	     49.68898737	     -5.79838915	    -12.30090387	     11.94825440	     11.94825440	    -20.29603930	      0.00000000	      0.00000000	     30.87122170	      0.41762712	      8.89417623	     12.44956862	    -14.02192170	     26.79163762	     45.24161262	     62.27639262	      0.00000000	      0.00000000	    -24.54767602	    -10.30188004	     46.56501420	     11.83642657	     23.85203084	      0.00000000	      0.00000000
      4.11000000	    -24.75401940	      3.42322995	    -10.78476157	      0.10995087	      0.90147213	      0.20749743	     26.83118181	      0.42289345	      4.80061006	     42.30326064	     42.30326064	      2.64618439	      0.00000000	      0.00000000	     49.39927092	     -5.20033042	    -12.03004269	     12.63281753	     12.63281753	    -19.82416384	      0.00000000	      0.00000000	     30.61866638	      0.01084963	      8.61091701	     11.57060403	    -13.83502782	     26.98247241	     43.80284364	     61.98115295	      0.00000000	      0.00000000	    -23.32139405	    -10.43695698	     46.29064661	     12.00236533	     23.92405004	      0.00000000	      0.00000000
      4.12000000	    -24.69752860	      3.61797175	    -10.42505254	      0.11827819	      0.90247974	      0.20551475	     27.91515598	     -0.08753296	      4.64170233	     44.78077524	     44.78077524	      0.35447685	      0.00000000	      0.00000000	     49.19721549	     -4.61569119	    -11.79819619	     13.24971303	     13.24971303	    -19.25342413	      0.00000000	      0.00000000	     30.49721220	     -0.36108975	      8.35943178	     10.75269409	    -13.60506054	     27.26052363	     42.23089059	     61.62416241	      0.00000000	      0.00000000	    -22.07158340	    -10.57993878	     45.86886028	     12.18028611	     24.04377741	      0.00000000	      0.00000000
      4.13000000	    -24.41961937	      3.50985387	    -10.10179856	      0.12628667	      0.90384614	      0.20366178	     28.74714362	     -0.29529683	      4.42745342	     47.22786119	     47.22786119	     -1.46331728	      0.00000000	      0.00000000	     48.68336536	     -4.25009331	    -11.47365424	     13.72346407	     13.72346407	    -18.82970874	      0.00000000	      0.00000000	     29.96182659	     -0.44960621	      8.10875859	      9.89410277	    -13.57290182	     27.46566172	     40.91291025	     61.44340121	      0.00000000	      0.00000000	    -20.60865161	    -10.74654550	     45.63473339	     12.45186904	     24.11946117	      0.00000000	      0.00000000
      4.14000000	    -24.60736691	      3.82982222	     -9.78192810	      0.13407542	      0.90469668	      0.20169895	     30.28874700	     -0.87479622	      4.34963884	     49.69594235	     49.69594235	     -3.94970151	      0.00000000	      0.00000000	     48.63570259	     -3.61132161	    -11.40586039	     14.13374905	     14.13374905	    -17.95543897	      0.00000000	      0.00000000	     30.16009091	     -0.86859615	      7.88127722	      9.16875779	    -13.26579033	     27.94366760	     39.04635398	     61.09095349	      0.00000000	      0.00000000	    -19.35794504	    -10.87464851	     45.04985836	     12.61548140	     24.36273573	      0.00000000	      0.00000000
      4.15000000	    -24.71071671	      3.92229083	     -9.57516164	      0.14122608	      0.90555420	      0.19991106	     31.77623847	     -1.13313759	      4.37760129	     52.17469815	     52.17469815	     -5.58249738	      0.00000000	      0.00000000	     48.48393539	     -3.22678120	    -11.33619465	     14.47363379	     14.47363379	    -17.42380017	      0.00000000	      0.00000000	     30.08627661	     -1.01809570	      7.38539246	      8.84151118	    -13.30115177	     29.91407861	     37.46864221	     58.20940978	      0.00000000	      0.00000000	    -18.29729907	    -10.29258412	     37.90738828	     12.47507714	     30.35846515	      0.00000000	      0.00000000
      4.16000000	    -24.60733200	      3.90881741	     -9.30082437	      0.14851634	      0.90680403	      0.19807416	     32.95706007	     -1.39105156	      4.24509099	     54.45077406	     54.45077406	     -6.86521396	      0.00000000	      0.00000000	     48.03409462	     -2.82138961	    -11.11059696	     14.69566930	     14.69566930	    -16.74917108	      0.00000000	      0.00000000	     29.76126809	     -1.11674778	      7.17089438	      8.02727321	    -13.20985903	     30.12098802	     36.00286239	     58.22537247	      0.00000000	      0.00000000	    -16.76608162	    -10.47168712	     37.89534382	     12.71458693	     30.63435216	      0.00000000	      0.00000000
